<svg width="222" height="34" viewBox="0 0 222 34" fill="none" xmlns="http://www.w3.org/2000/svg">
<path fill-rule="evenodd" clip-rule="evenodd" d="M37.9357 11.1026C37.9803 10.7552 38.0017 10.405 37.9997 10.0546C38.0024 9.69316 37.981 9.33198 37.9357 8.97357C37.6983 7.38949 36.9784 5.92387 35.8795 4.78796C35.2768 4.15089 34.5808 3.61488 33.8169 3.1994C33.3245 2.89442 32.7974 2.6531 32.2475 2.48093C30.8442 2.12479 29.4006 1.96515 27.9558 2.00634H26.8092L9.07867 2.0393H0.379938C0.174752 2.0393 0.00841584 2.21046 0.00841584 2.42161V3.54216C0.00794241 3.73979 0.156331 3.90401 0.34791 3.91788H0.591321C0.82192 3.9838 1.05252 3.9838 1.28953 3.9838C1.82316 3.99415 2.35481 4.05371 2.8781 4.16177C3.08554 4.20475 3.28466 4.2827 3.46741 4.39247C3.7388 4.63081 3.9013 4.97481 3.9158 5.34165C3.98942 5.94724 4.02366 6.55721 4.01829 7.1675V12.5528C4.01829 12.9087 4.01829 13.2712 4.01829 13.5942C4.01829 13.9765 4.01829 14.3391 4.01829 14.5961C4.05346 15.028 3.91712 15.456 3.64036 15.7826C3.32992 15.9454 2.9823 16.0184 2.63469 15.9935H2.50658C2.19911 15.9935 1.9493 15.9935 1.68667 15.9935C1.42404 15.9935 1.04611 15.9935 0.57851 16.0397H0.335099C0.229132 16.0521 0.133205 16.11 0.0709827 16.1992C0.00876051 16.2883 -0.0139637 16.4004 0.00841584 16.5077V17.6282C0.0110127 17.8282 0.160628 17.9936 0.354315 18.0105H0.591321C0.950031 18.0435 1.23188 18.0435 1.57778 18.0435H2.30801H2.90372H2.95497C3.32649 18.0435 3.6852 18.0765 3.86456 18.5181C3.91238 18.6351 3.93845 18.7603 3.94142 18.8872V18.9795C3.94142 19.3486 3.99907 19.7243 4.00548 20.1001C4.01188 20.4758 4.00548 20.7592 4.00548 21.0822V24.6087C4.00548 24.8591 4.00548 25.1162 4.00548 25.3799C4.03388 26.1577 4.02319 26.9365 3.97345 27.7133C3.94317 28.2909 3.71643 28.8393 3.3329 29.2623C2.91831 29.6322 2.38912 29.8379 1.8404 29.8423H1.50091H1.28953H0.853948C0.674593 29.8423 0.501643 29.8423 0.335099 29.8885H0.200582C0.0276325 29.8885 0.0276325 30.073 0.0276325 30.1389C0.00840288 30.2074 0.00188351 30.2789 0.00841584 30.3499V31.6154C0.00821569 31.6994 0.0404782 31.78 0.0980935 31.8395C0.219665 31.9372 0.374501 31.98 0.527265 31.9582H26.6747C27.2512 31.9582 27.9558 31.9582 28.5964 31.9582H28.8334C29.5291 31.9643 30.2244 31.9247 30.9152 31.8395C31.3781 31.7787 31.8348 31.675 32.2796 31.5297C32.8175 31.3446 33.3366 31.1062 33.8297 30.8179C34.5883 30.3892 35.2794 29.8447 35.8795 29.2029C36.9784 28.067 37.6983 26.6014 37.9357 25.0173C37.9803 24.6699 38.0017 24.3197 37.9997 23.9693C38.0027 23.6078 37.9813 23.2466 37.9357 22.8883C37.6051 20.7766 36.4474 18.8968 34.7329 17.6876L33.7849 16.9954L34.7329 16.3363C36.4571 15.1217 37.6163 13.2275 37.9357 11.1026ZM34.598 20.3901C35.4362 21.3722 35.9262 22.6177 35.988 23.9232C35.9372 25.2469 35.4465 26.5127 34.598 27.509C34.1071 28.1011 33.5197 28.6007 32.8621 28.9855C32.6709 29.0931 32.4742 29.1899 32.2728 29.2755C30.7739 29.9347 29.07 29.8951 27.4046 29.8556H26.2964H7.5538C7.11268 29.8538 6.69039 29.6714 6.38027 29.3485C6.07016 29.0257 5.89776 28.5891 5.90117 28.1352V18.907C5.90811 18.4415 6.27503 18.0669 6.72748 18.0633H14.7793C16.7458 18.0633 18.93 18.0633 21.0439 18.0633H26.4053H27.411C28.813 17.9579 30.2224 18.0802 31.5874 18.4259C32.7714 18.7392 33.8279 19.4317 34.6044 20.4033L34.598 20.3901ZM32.8941 15.0575C31.4272 15.9078 29.5696 15.9144 28.2116 15.9144C23.9519 15.9144 19.6858 15.9144 16.0411 15.9144H6.74661C6.28317 15.9144 5.90748 15.5278 5.90748 15.0509C5.90748 13.0273 5.90748 11.096 5.90748 9.37562V5.30206C5.90748 4.67955 6.39788 4.17491 7.00283 4.17491H16.9314C17.8026 4.17491 18.6865 4.17491 19.5449 4.17491H19.5769C20.9541 4.17491 22.5107 4.17491 24.0032 4.17491C24.7142 4.17491 25.4316 4.17491 26.1234 4.17491H26.1554C27.0266 4.17491 27.9233 4.14195 28.8073 4.17491C30.2614 4.23424 31.9268 4.37266 33.2271 5.2691C34.4351 6.06982 35.3395 7.27271 35.7894 8.67692C35.9226 9.12174 35.998 9.58276 36.0136 10.048V10.0875C35.9388 11.389 35.4401 12.6267 34.5979 13.6008C34.1171 14.1851 33.5404 14.6781 32.8941 15.0575Z" fill="#573BA3"/>
<path d="M59.068 16.78C60.9533 16.78 62.428 17.2373 63.492 18.152C64.5747 19.0667 65.116 20.2147 65.116 21.596C65.116 23.1453 64.528 24.4333 63.352 25.46C62.176 26.4867 60.4307 27 58.116 27H48.204V26.16C49.2867 26.104 50.0053 25.8707 50.36 25.46C50.7333 25.0307 50.92 24.228 50.92 23.052V11.348C50.92 10.1533 50.7333 9.35067 50.36 8.94C50.0053 8.52933 49.2867 8.296 48.204 8.24V7.4H57.864C59.88 7.4 61.4387 7.82933 62.54 8.688C63.6413 9.54667 64.192 10.7133 64.192 12.188C64.192 13.4013 63.716 14.428 62.764 15.268C61.8307 16.108 60.5893 16.556 59.04 16.612H58.06V16.78H59.068ZM56.828 8.464H54.028V16.192H57.08C58.312 16.192 59.264 15.8653 59.936 15.212C60.6267 14.54 60.972 13.588 60.972 12.356C60.972 10.9 60.6267 9.892 59.936 9.332C59.2453 8.75333 58.2093 8.464 56.828 8.464ZM57.612 25.936C59.012 25.936 60.0667 25.5533 60.776 24.788C61.4853 24.0227 61.84 22.968 61.84 21.624C61.84 20.2613 61.448 19.1973 60.664 18.432C59.88 17.648 58.788 17.256 57.388 17.256H54.028V24.228C54.028 24.788 54.1587 25.2173 54.42 25.516C54.6813 25.796 55.1293 25.936 55.764 25.936H57.612ZM78.9168 25.292C77.6101 26.6547 75.9395 27.336 73.9048 27.336C71.8701 27.336 70.1901 26.6547 68.8648 25.292C67.5581 23.9293 66.9048 22.1933 66.9048 20.084C66.9048 17.9933 67.5581 16.2667 68.8648 14.904C70.1901 13.5227 71.8701 12.832 73.9048 12.832C75.9395 12.832 77.6101 13.5227 78.9168 14.904C80.2421 16.2667 80.9048 17.9933 80.9048 20.084C80.9048 22.1933 80.2421 23.9293 78.9168 25.292ZM70.1808 20.084C70.1808 24.06 71.4221 26.048 73.9048 26.048C76.3875 26.048 77.6288 24.06 77.6288 20.084C77.6288 16.108 76.3875 14.12 73.9048 14.12C71.4221 14.12 70.1808 16.108 70.1808 20.084ZM94.8038 25.292C93.4972 26.6547 91.8265 27.336 89.7918 27.336C87.7572 27.336 86.0772 26.6547 84.7518 25.292C83.4452 23.9293 82.7918 22.1933 82.7918 20.084C82.7918 17.9933 83.4452 16.2667 84.7518 14.904C86.0772 13.5227 87.7572 12.832 89.7918 12.832C91.8265 12.832 93.4972 13.5227 94.8038 14.904C96.1292 16.2667 96.7918 17.9933 96.7918 20.084C96.7918 22.1933 96.1292 23.9293 94.8038 25.292ZM86.0678 20.084C86.0678 24.06 87.3092 26.048 89.7918 26.048C92.2745 26.048 93.5158 24.06 93.5158 20.084C93.5158 16.108 92.2745 14.12 89.7918 14.12C87.3092 14.12 86.0678 16.108 86.0678 20.084ZM97.9854 27V26.188C98.9374 26.076 99.5534 25.908 99.8334 25.684C100.113 25.4413 100.253 24.956 100.253 24.228V8.968C100.253 8.408 100.169 8.02533 100.001 7.82C99.8334 7.61467 99.5161 7.512 99.0494 7.512C98.7507 7.512 98.4147 7.54 98.0414 7.596V6.84L102.269 5.72H103.081V24.228C103.081 24.9373 103.203 25.4133 103.445 25.656C103.688 25.8987 104.173 26.076 104.901 26.188V27H97.9854ZM109.661 27L103.501 19.748L107.589 16.472C108.429 15.7627 108.849 15.1933 108.849 14.764C108.849 14.4653 108.737 14.2693 108.513 14.176C108.289 14.064 107.916 14.008 107.393 14.008V13.168H113.189V14.008C112.219 14.1387 111.08 14.7547 109.773 15.856L106.469 18.572L106.497 18.712L111.145 24.088C111.668 24.704 112.125 25.1707 112.517 25.488C112.928 25.8053 113.432 26.0387 114.029 26.188V27H109.661ZM119.379 27.336C117.513 27.336 115.973 26.86 114.759 25.908V22.492H115.795C116.057 23.6493 116.551 24.5267 117.279 25.124C118.007 25.7213 118.866 26.02 119.855 26.02C120.639 26.02 121.265 25.8333 121.731 25.46C122.217 25.0867 122.459 24.5733 122.459 23.92C122.459 23.3787 122.319 22.94 122.039 22.604C121.759 22.268 121.302 21.9973 120.667 21.792L118.091 20.896C115.926 20.1867 114.843 18.8987 114.843 17.032C114.843 15.7627 115.329 14.7453 116.299 13.98C117.27 13.2147 118.521 12.832 120.051 12.832C121.526 12.832 122.898 13.1307 124.167 13.728V16.864H123.159C122.954 16.0427 122.534 15.3707 121.899 14.848C121.283 14.3253 120.518 14.064 119.603 14.064C118.875 14.064 118.287 14.232 117.839 14.568C117.41 14.904 117.195 15.3427 117.195 15.884C117.195 16.9107 117.765 17.6293 118.903 18.04L121.871 19.104C123.813 19.8133 124.783 21.0827 124.783 22.912C124.783 24.256 124.289 25.3293 123.299 26.132C122.31 26.9347 121.003 27.336 119.379 27.336ZM126.013 27V26.188C126.947 26.0947 127.553 25.9267 127.833 25.684C128.132 25.4413 128.281 24.956 128.281 24.228V8.968C128.281 8.38933 128.197 8.00667 128.029 7.82C127.861 7.61467 127.525 7.512 127.021 7.512C126.76 7.512 126.443 7.54 126.069 7.596V6.84L130.297 5.72H131.109V12.468C131.109 14.036 130.932 15.38 130.577 16.5L130.717 16.556C131.091 15.38 131.697 14.4653 132.537 13.812C133.396 13.1587 134.432 12.832 135.645 12.832C136.971 12.832 138.016 13.224 138.781 14.008C139.565 14.792 139.957 16.0147 139.957 17.676V24.2C139.957 24.9467 140.097 25.4413 140.377 25.684C140.676 25.908 141.292 26.076 142.225 26.188V27H135.365V26.188C136.056 26.0573 136.523 25.88 136.765 25.656C137.008 25.4133 137.129 25.0307 137.129 24.508V18.096C137.129 17.032 136.877 16.2387 136.373 15.716C135.869 15.1747 135.188 14.904 134.329 14.904C132.836 14.904 131.763 15.5573 131.109 16.864V24.228C131.109 24.9373 131.231 25.4133 131.473 25.656C131.716 25.8987 132.201 26.076 132.929 26.188V27H126.013ZM155.153 25.292C153.846 26.6547 152.175 27.336 150.141 27.336C148.106 27.336 146.426 26.6547 145.101 25.292C143.794 23.9293 143.141 22.1933 143.141 20.084C143.141 17.9933 143.794 16.2667 145.101 14.904C146.426 13.5227 148.106 12.832 150.141 12.832C152.175 12.832 153.846 13.5227 155.153 14.904C156.478 16.2667 157.141 17.9933 157.141 20.084C157.141 22.1933 156.478 23.9293 155.153 25.292ZM146.417 20.084C146.417 24.06 147.658 26.048 150.141 26.048C152.623 26.048 153.865 24.06 153.865 20.084C153.865 16.108 152.623 14.12 150.141 14.12C147.658 14.12 146.417 16.108 146.417 20.084ZM158.278 33.3V32.488C159.211 32.3947 159.818 32.2267 160.098 31.984C160.396 31.7413 160.546 31.256 160.546 30.528V16.416C160.546 15.968 160.443 15.6507 160.238 15.464C160.051 15.2587 159.734 15.156 159.286 15.156C159.062 15.156 158.67 15.1747 158.11 15.212V14.4L162.226 13.168H163.066V14.764C163.066 15.1373 162.982 15.716 162.814 16.5L162.954 16.528C163.327 15.3893 163.934 14.4933 164.774 13.84C165.632 13.168 166.622 12.832 167.742 12.832C169.384 12.832 170.691 13.42 171.662 14.596C172.651 15.7533 173.146 17.3027 173.146 19.244C173.146 21.6147 172.483 23.556 171.158 25.068C169.851 26.58 168.18 27.336 166.146 27.336C165.1 27.336 164.176 27.0933 163.374 26.608V30.5C163.374 31.2653 163.56 31.76 163.934 31.984C164.326 32.2267 165.1 32.3947 166.258 32.488V33.3H158.278ZM166.146 26.16C167.359 26.16 168.33 25.6373 169.058 24.592C169.786 23.528 170.15 22.0907 170.15 20.28C170.15 18.6373 169.832 17.3773 169.198 16.5C168.582 15.604 167.676 15.156 166.482 15.156C165.026 15.156 163.99 15.7067 163.374 16.808V24.928C164.139 25.7493 165.063 26.16 166.146 26.16ZM178.513 26.58C178.102 27.0093 177.598 27.224 177.001 27.224C176.404 27.224 175.89 27.0093 175.461 26.58C175.032 26.1507 174.817 25.6373 174.817 25.04C174.817 24.4427 175.032 23.9387 175.461 23.528C175.89 23.0987 176.404 22.884 177.001 22.884C177.58 22.884 178.084 23.0987 178.513 23.528C178.942 23.9387 179.157 24.4427 179.157 25.04C179.157 25.6373 178.942 26.1507 178.513 26.58ZM192.833 25.292C191.527 26.6547 189.856 27.336 187.821 27.336C185.787 27.336 184.107 26.6547 182.781 25.292C181.475 23.9293 180.821 22.1933 180.821 20.084C180.821 17.9933 181.475 16.2667 182.781 14.904C184.107 13.5227 185.787 12.832 187.821 12.832C189.856 12.832 191.527 13.5227 192.833 14.904C194.159 16.2667 194.821 17.9933 194.821 20.084C194.821 22.1933 194.159 23.9293 192.833 25.292ZM184.097 20.084C184.097 24.06 185.339 26.048 187.821 26.048C190.304 26.048 191.545 24.06 191.545 20.084C191.545 16.108 190.304 14.12 187.821 14.12C185.339 14.12 184.097 16.108 184.097 20.084ZM205.394 12.832C205.749 12.832 206.029 12.8693 206.234 12.944V16.136H205.702C205.329 15.9493 204.918 15.856 204.47 15.856C203.612 15.856 202.884 16.1173 202.286 16.64C201.708 17.144 201.418 17.9653 201.418 19.104V24.2C201.418 24.9653 201.605 25.4693 201.978 25.712C202.37 25.936 203.145 26.0947 204.302 26.188V27H196.322V26.188C197.256 26.0947 197.862 25.9267 198.142 25.684C198.441 25.4413 198.59 24.956 198.59 24.228V16.416C198.59 15.968 198.488 15.6507 198.282 15.464C198.096 15.2587 197.76 15.156 197.274 15.156C197.088 15.156 196.714 15.1747 196.154 15.212V14.4L200.27 13.168H201.11V15.436C201.11 16.612 201.073 17.6293 200.998 18.488H201.194L201.446 16.864C201.652 15.5387 202.128 14.54 202.874 13.868C203.621 13.1773 204.461 12.832 205.394 12.832ZM219.752 14.736C218.949 14.736 218.091 14.5213 217.176 14.092L217.064 14.26C218.539 14.764 219.276 15.884 219.276 17.62C219.276 19.02 218.735 20.1493 217.652 21.008C216.588 21.8667 215.207 22.296 213.508 22.296C212.78 22.296 212.061 22.2027 211.352 22.016C210.363 22.128 209.868 22.5667 209.868 23.332C209.868 24.116 210.549 24.5547 211.912 24.648L216.42 24.9C219.351 25.0493 220.816 26.2067 220.816 28.372C220.816 29.8093 220.181 31.0413 218.912 32.068C217.643 33.1133 215.711 33.636 213.116 33.636C211.249 33.636 209.765 33.3187 208.664 32.684C207.563 32.068 207.012 31.284 207.012 30.332C207.012 28.8947 207.983 27.924 209.924 27.42V27.252C209.233 27.0467 208.692 26.7013 208.3 26.216C207.927 25.7307 207.74 25.1707 207.74 24.536C207.74 23.9387 207.945 23.388 208.356 22.884C208.767 22.3613 209.364 21.9693 210.148 21.708V21.512C209.401 21.12 208.813 20.588 208.384 19.916C207.955 19.2253 207.74 18.4507 207.74 17.592C207.74 16.192 208.281 15.0533 209.364 14.176C210.447 13.28 211.828 12.832 213.508 12.832C214.348 12.832 215.123 12.944 215.832 13.168H220.816V14.736H219.752ZM211.464 20.392C211.968 20.9893 212.649 21.288 213.508 21.288C214.367 21.288 215.048 20.9893 215.552 20.392C216.056 19.776 216.308 18.8427 216.308 17.592C216.308 16.3413 216.056 15.408 215.552 14.792C215.048 14.1573 214.367 13.84 213.508 13.84C212.649 13.84 211.968 14.1573 211.464 14.792C210.96 15.408 210.708 16.3413 210.708 17.592C210.708 18.8427 210.96 19.776 211.464 20.392ZM215.832 27.672L211.1 27.448C210.988 27.448 210.904 27.4387 210.848 27.42C209.952 27.868 209.504 28.5587 209.504 29.492C209.504 30.3507 209.943 31.0227 210.82 31.508C211.697 32.012 212.92 32.264 214.488 32.264C215.888 32.264 216.971 32.04 217.736 31.592C218.501 31.144 218.884 30.5373 218.884 29.772C218.884 28.428 217.867 27.728 215.832 27.672Z" fill="#2B0F42"/>
</svg>
